<mxfile host="app.diagrams.net" modified="2020-11-17T13:24:59.419Z" agent="5.0 (Windows)" etag="h3McinvVsRyAB12a3ZKt" version="13.9.9" type="github">
  <diagram id="kgpKYQtTHZ0yAKxKKP6v" name="Page-1">
    <mxGraphModel dx="1422" dy="791" grid="1" gridSize="10" guides="1" tooltips="1" connect="1" arrows="1" fold="1" page="1" pageScale="1" pageWidth="850" pageHeight="1100" math="0" shadow="0">
      <root>
        <mxCell id="0" />
        <mxCell id="1" parent="0" />
        <mxCell id="HViLHW_u2GfBo_hhAshu-14" value="" style="edgeStyle=orthogonalEdgeStyle;rounded=0;orthogonalLoop=1;jettySize=auto;html=1;" parent="1" source="HViLHW_u2GfBo_hhAshu-15" target="HViLHW_u2GfBo_hhAshu-20" edge="1">
          <mxGeometry relative="1" as="geometry">
            <Array as="points">
              <mxPoint x="280" y="190" />
              <mxPoint x="280" y="190" />
            </Array>
          </mxGeometry>
        </mxCell>
        <mxCell id="HViLHW_u2GfBo_hhAshu-15" value="User" style="shape=umlLifeline;perimeter=lifelinePerimeter;container=1;collapsible=0;recursiveResize=0;rounded=0;shadow=0;strokeWidth=1;" parent="1" vertex="1">
          <mxGeometry x="130" y="90" width="100" height="300" as="geometry" />
        </mxCell>
        <mxCell id="HViLHW_u2GfBo_hhAshu-20" value="форма авторизации" style="shape=umlLifeline;perimeter=lifelinePerimeter;container=1;collapsible=0;recursiveResize=0;rounded=0;shadow=0;strokeWidth=1;" parent="1" vertex="1">
          <mxGeometry x="320" y="90" width="115" height="300" as="geometry" />
        </mxCell>
        <mxCell id="HViLHW_u2GfBo_hhAshu-21" value="" style="points=[];perimeter=orthogonalPerimeter;rounded=0;shadow=0;strokeWidth=1;" parent="HViLHW_u2GfBo_hhAshu-20" vertex="1">
          <mxGeometry x="45" y="80" width="25" height="160" as="geometry" />
        </mxCell>
        <mxCell id="HViLHW_u2GfBo_hhAshu-22" value="&lt;div&gt;Кнопка нажата&lt;/div&gt;&lt;div&gt;login&lt;br&gt;&lt;/div&gt;" style="text;html=1;strokeColor=none;fillColor=none;align=center;verticalAlign=middle;whiteSpace=wrap;rounded=0;" parent="1" vertex="1">
          <mxGeometry x="240" y="150" width="60" height="40" as="geometry" />
        </mxCell>
        <mxCell id="HViLHW_u2GfBo_hhAshu-28" style="edgeStyle=orthogonalEdgeStyle;rounded=0;orthogonalLoop=1;jettySize=auto;html=1;entryX=-0.02;entryY=0.475;entryDx=0;entryDy=0;entryPerimeter=0;" parent="1" source="HViLHW_u2GfBo_hhAshu-21" target="HViLHW_u2GfBo_hhAshu-30" edge="1">
          <mxGeometry relative="1" as="geometry">
            <mxPoint x="490" y="250" as="targetPoint" />
            <Array as="points">
              <mxPoint x="444" y="250" />
              <mxPoint x="444" y="246" />
              <mxPoint x="490" y="246" />
              <mxPoint x="490" y="256" />
            </Array>
          </mxGeometry>
        </mxCell>
        <mxCell id="HViLHW_u2GfBo_hhAshu-29" value="сервер" style="shape=umlLifeline;perimeter=lifelinePerimeter;container=1;collapsible=0;recursiveResize=0;rounded=0;shadow=0;strokeWidth=1;" parent="1" vertex="1">
          <mxGeometry x="460" y="90" width="100" height="300" as="geometry" />
        </mxCell>
        <mxCell id="HViLHW_u2GfBo_hhAshu-30" value="" style="points=[];perimeter=orthogonalPerimeter;rounded=0;shadow=0;strokeWidth=1;" parent="HViLHW_u2GfBo_hhAshu-29" vertex="1">
          <mxGeometry x="38.75" y="80" width="21.25" height="180" as="geometry" />
        </mxCell>
        <mxCell id="HViLHW_u2GfBo_hhAshu-46" value="" style="endArrow=classic;html=1;exitX=1.094;exitY=0.617;exitDx=0;exitDy=0;exitPerimeter=0;entryX=0.953;entryY=0.828;entryDx=0;entryDy=0;entryPerimeter=0;" parent="HViLHW_u2GfBo_hhAshu-29" source="HViLHW_u2GfBo_hhAshu-30" target="HViLHW_u2GfBo_hhAshu-30" edge="1">
          <mxGeometry width="50" height="50" relative="1" as="geometry">
            <mxPoint x="-100" y="120" as="sourcePoint" />
            <mxPoint x="-50" y="70" as="targetPoint" />
            <Array as="points">
              <mxPoint x="80" y="210" />
            </Array>
          </mxGeometry>
        </mxCell>
        <mxCell id="HViLHW_u2GfBo_hhAshu-32" value="" style="endArrow=classic;html=1;exitX=-0.089;exitY=0.706;exitDx=0;exitDy=0;exitPerimeter=0;" parent="1" source="HViLHW_u2GfBo_hhAshu-30" target="HViLHW_u2GfBo_hhAshu-15" edge="1">
          <mxGeometry width="50" height="50" relative="1" as="geometry">
            <mxPoint x="100" y="210" as="sourcePoint" />
            <mxPoint x="150" y="160" as="targetPoint" />
            <Array as="points">
              <mxPoint x="410" y="350" />
            </Array>
          </mxGeometry>
        </mxCell>
        <mxCell id="HViLHW_u2GfBo_hhAshu-33" value="возврат на форму авторизации" style="text;html=1;strokeColor=none;fillColor=none;align=center;verticalAlign=middle;whiteSpace=wrap;rounded=0;" parent="1" vertex="1">
          <mxGeometry x="240" y="310" width="60" height="40" as="geometry" />
        </mxCell>
        <mxCell id="HViLHW_u2GfBo_hhAshu-34" value="передача данных" style="text;html=1;strokeColor=none;fillColor=none;align=center;verticalAlign=middle;whiteSpace=wrap;rounded=0;" parent="1" vertex="1">
          <mxGeometry x="410" y="200" width="60" height="40" as="geometry" />
        </mxCell>
        <mxCell id="HViLHW_u2GfBo_hhAshu-35" value="банкомат" style="shape=umlLifeline;perimeter=lifelinePerimeter;container=1;collapsible=0;recursiveResize=0;rounded=0;shadow=0;strokeWidth=1;" parent="1" vertex="1">
          <mxGeometry x="600" y="90" width="100" height="300" as="geometry" />
        </mxCell>
        <mxCell id="HViLHW_u2GfBo_hhAshu-36" value="" style="points=[];perimeter=orthogonalPerimeter;rounded=0;shadow=0;strokeWidth=1;" parent="HViLHW_u2GfBo_hhAshu-35" vertex="1">
          <mxGeometry x="38.75" y="80" width="22.5" height="180" as="geometry" />
        </mxCell>
        <mxCell id="ezMOkzQauO2dTaAkU21o-2" value="" style="endArrow=classic;html=1;exitX=1.122;exitY=0.433;exitDx=0;exitDy=0;exitPerimeter=0;" edge="1" parent="HViLHW_u2GfBo_hhAshu-35" source="HViLHW_u2GfBo_hhAshu-36" target="HViLHW_u2GfBo_hhAshu-36">
          <mxGeometry width="50" height="50" relative="1" as="geometry">
            <mxPoint x="-200" y="340" as="sourcePoint" />
            <mxPoint x="-150" y="290" as="targetPoint" />
          </mxGeometry>
        </mxCell>
        <mxCell id="HViLHW_u2GfBo_hhAshu-37" style="edgeStyle=orthogonalEdgeStyle;rounded=0;orthogonalLoop=1;jettySize=auto;html=1;" parent="1" source="HViLHW_u2GfBo_hhAshu-30" target="HViLHW_u2GfBo_hhAshu-35" edge="1">
          <mxGeometry relative="1" as="geometry" />
        </mxCell>
        <mxCell id="HViLHW_u2GfBo_hhAshu-40" value="&lt;div&gt;переход&lt;/div&gt;" style="text;html=1;strokeColor=none;fillColor=none;align=center;verticalAlign=middle;whiteSpace=wrap;rounded=0;" parent="1" vertex="1">
          <mxGeometry x="560" y="200" width="60" height="40" as="geometry" />
        </mxCell>
        <mxCell id="HViLHW_u2GfBo_hhAshu-44" value="валидация" style="text;html=1;strokeColor=none;fillColor=none;align=center;verticalAlign=middle;whiteSpace=wrap;rounded=0;" parent="1" vertex="1">
          <mxGeometry x="540" y="270" width="60" height="40" as="geometry" />
        </mxCell>
        <mxCell id="HViLHW_u2GfBo_hhAshu-50" value="" style="endArrow=classic;html=1;exitX=-0.033;exitY=0.206;exitDx=0;exitDy=0;exitPerimeter=0;" parent="1" source="HViLHW_u2GfBo_hhAshu-36" target="HViLHW_u2GfBo_hhAshu-29" edge="1">
          <mxGeometry width="50" height="50" relative="1" as="geometry">
            <mxPoint x="360" y="210" as="sourcePoint" />
            <mxPoint x="410" y="160" as="targetPoint" />
          </mxGeometry>
        </mxCell>
        <mxCell id="HViLHW_u2GfBo_hhAshu-51" value="передача данных" style="text;html=1;strokeColor=none;fillColor=none;align=center;verticalAlign=middle;whiteSpace=wrap;rounded=0;" parent="1" vertex="1">
          <mxGeometry x="550" y="160" width="60" height="40" as="geometry" />
        </mxCell>
        <mxCell id="HViLHW_u2GfBo_hhAshu-52" value="" style="endArrow=classic;html=1;exitX=1.047;exitY=0.961;exitDx=0;exitDy=0;exitPerimeter=0;entryX=-0.078;entryY=0.939;entryDx=0;entryDy=0;entryPerimeter=0;" parent="1" source="HViLHW_u2GfBo_hhAshu-30" target="HViLHW_u2GfBo_hhAshu-36" edge="1">
          <mxGeometry width="50" height="50" relative="1" as="geometry">
            <mxPoint x="360" y="210" as="sourcePoint" />
            <mxPoint x="410" y="160" as="targetPoint" />
          </mxGeometry>
        </mxCell>
        <mxCell id="HViLHW_u2GfBo_hhAshu-53" value="&lt;div&gt;результат&lt;/div&gt;" style="text;html=1;strokeColor=none;fillColor=none;align=center;verticalAlign=middle;whiteSpace=wrap;rounded=0;" parent="1" vertex="1">
          <mxGeometry x="550" y="300" width="60" height="40" as="geometry" />
        </mxCell>
        <mxCell id="ezMOkzQauO2dTaAkU21o-3" value="валидация" style="text;html=1;strokeColor=none;fillColor=none;align=center;verticalAlign=middle;whiteSpace=wrap;rounded=0;" vertex="1" parent="1">
          <mxGeometry x="680" y="210" width="60" height="40" as="geometry" />
        </mxCell>
      </root>
    </mxGraphModel>
  </diagram>
</mxfile>
